<?xml version="1.0" encoding="UTF-8" standalone="no"?>
<!-- Created with Inkscape (http://www.inkscape.org/) -->

<svg
   width="44.179424mm"
   height="44.002354mm"
   viewBox="0 0 44.179424 44.002354"
   version="1.1"
   id="svg1"
   xml:space="preserve"
   xmlns="http://www.w3.org/2000/svg"
   xmlns:svg="http://www.w3.org/2000/svg"><defs
     id="defs1" /><g
     id="layer1"
     transform="translate(-137.52903,-103.8443)"><path
       id="path6"
       style="fill:#c995f8"
       d="m 170.91439,103.84599 c -0.309,-0.005 -0.62225,0.001 -0.93896,0.0196 -1.75612,0.10166 -2.37776,0.27722 -4.08399,1.15496 -2.41007,1.23982 -3.81992,2.68717 -4.95835,5.09013 l -0.83716,1.76734 -0.13229,6.65385 c -0.12057,6.06428 -0.12794,6.75551 -0.25471,7.41997 -0.7811,0.17236 -1.12121,0.34597 -7.14794,0.34597 -5.12897,0 -6.49743,0.0796 -7.56543,0.43873 -8.1911,2.75426 -10.10557,13.19458 -3.42046,18.65261 2.5619,2.09166 3.73217,2.33904 11.07426,2.34404 32.38479,0.0185 5.20663,-0.0935 18.17244,-0.0897 l 10.72032,0.0804 0.0552,-9.48871 c -0.0114,-5.63893 0.19063,-13.87505 0.0756,-18.0224 -0.18394,-6.63251 -0.27504,-7.72313 -0.75706,-9.05733 -1.63701,-4.5311 -5.36633,-7.23101 -10.00146,-7.30911 z" /><path
       id="path3"
       style="fill:#9302e1"
       d="m 145.59252,111.38448 c -0.89755,0 -1.94029,0.90135 -2.29857,1.98696 -0.46895,1.42094 0.5416,3.35711 3.03961,5.8229 1.10303,1.08881 2.17033,1.97972 2.37143,1.97972 0.6841,0 4.28226,-3.85067 5.0338,-5.38675 0.6311,-1.28993 0.68626,-1.58938 0.4284,-2.32906 -0.41403,-1.18769 -1.01482,-1.77277 -2.01331,-1.96009 -0.99339,-0.18636 -2.34204,0.40277 -2.77503,1.21182 -0.15496,0.28953 -0.45238,0.52658 -0.66042,0.52658 -0.20804,0 -0.50495,-0.23705 -0.65991,-0.52658 -0.34667,-0.64776 -1.60761,-1.3255 -2.466,-1.3255 z m 14.10611,14.55208 v 10.80347 c 0,5.9421 0.0807,10.88471 0.17932,10.98331 0.0986,0.0986 5.00995,0.14859 10.91406,0.11059 l 10.73475,-0.0693 0.0693,-10.91406 0.0692,-10.91406 h -10.98331 z m 11.92796,4.27106 h 5.2e-4 c 0.82353,0.009 1.22349,0.0976 1.33997,0.28112 0.11955,0.18845 0.21969,1.12989 0.22169,2.09238 l 0.004,1.75028 1.22783,0.16794 c 0.67515,0.0926 1.62766,0.16847 2.11667,0.16847 h 0.88883 v 2.24896 c 0,2.46352 0.12614,2.3006 -1.85208,2.3921 -2.62162,0.12126 -2.34963,-0.12101 -2.43603,2.17196 l -0.077,2.05052 -2.18695,0.077 c -1.60325,0.0564 -2.2196,-0.0142 -2.3089,-0.26458 -0.067,-0.18783 -0.15451,-1.1155 -0.19431,-2.06138 l -0.0723,-1.71979 -1.85209,-0.13229 c -1.01865,-0.0728 -2.00091,-0.2285 -2.18281,-0.34623 -0.21539,-0.1394 -0.33073,-0.89534 -0.33073,-2.16731 0,-1.27196 0.11534,-2.02791 0.33073,-2.16731 0.1819,-0.11773 1.16416,-0.27343 2.18281,-0.34623 l 1.85209,-0.1323 0.13229,-1.98437 0.13229,-1.98438 2.09341,-0.078 c 0.37387,-0.0139 0.69541,-0.0196 0.96997,-0.0165 z" /></g></svg>
